<?xml version="1.0" encoding="utf-8"?>
<!-- Generator: Adobe Illustrator 26.5.0, SVG Export Plug-In . SVG Version: 6.00 Build 0)  -->
<svg version="1.1" id="Layer_1" xmlns="http://www.w3.org/2000/svg" xmlns:xlink="http://www.w3.org/1999/xlink" x="0px" y="0px"
	 viewBox="0 0 432 227.9" style="enable-background:new 0 0 432 227.9;" xml:space="preserve">
<style type="text/css">
	.st0{fill:#606161;}
	.st1{fill:#A1515F;}
	.st2{fill:#7F903B;}
	.st3{fill:#D3B069;}
	.st4{fill:#BA6D5F;}
</style>
<g>
	<path class="st0" d="M66.4,152.3l-8.9,1.3L47.4,95l-20.3-0.3l-9.9,60.9l-8.9-1L32,8.8l9.4-0.3L66.4,152.3z M56.5,164.8v9.1
		l-35.9,0.3v-8.9L56.5,164.8z M45.8,87.2l-0.8-5.7c-4.7-25.5-4.7-26.8-8.1-46.4l-8.6,51.8l17.7,0.3H45.8z"/>
	<path class="st0" d="M124.5,174.2h-9.1l-0.3-126.6L103.9,94h-8.9L83.9,48.4c0,15.6,0,19.8,0,45.1l0.3,80.7H75V12.7l9.1-0.3l15.4,62
		l15.4-64.1l9.1,1.3L124.5,174.2z"/>
	<path class="st0" d="M162.8,53.6l-3.1,6l0.3,114.6h-9.1V59.6l-20.6-43.8l8.1-3.6l17.2,36.2l19.8-38.3l7.8,4.2L162.8,53.6z"/>
	<path class="st0" d="M285.7,170.5l-8.6,2.3L246.6,67.4c-1.8,0.3-3.9,0.3-6,0.3l-0.3,106.5h-8.9L231.8,7l8.9,0.3
		c13.3,0.5,23.4,2.9,30.7,8.6c7.3,5.7,10.9,13.8,10.2,22.4c-0.8,8.3-5.5,16.1-13.3,21.6c-3.6,2.6-8.1,4.4-12.8,5.7L285.7,170.5z
		 M263.1,52.5c5.7-3.9,9.1-9.4,9.6-15.1c0.3-5.5-2.1-10.7-6.8-14.6c-5.7-4.4-14.3-6.8-25.3-6.8v42.7
		C249.8,58.5,257.6,56.5,263.1,52.5z"/>
	<path class="st0" d="M294.8,9.8l36.7-0.3v8.1h-27.9v21.1l18.8-0.3l0.3,8.1l-19,0.3l0.3,100.3h26.3v8.1l-35.4,0.3V9.8z M330.8,164.8
		v9.1l-35.9,0.3v-8.9L330.8,164.8z"/>
	<path class="st0" d="M343.5,9.8l36.7-0.3v8.1h-27.9v21.1l18.8-0.3l0.3,8.1l-19,0.3l0.3,100.3H379v8.1l-35.4,0.3V9.8z M379.5,164.8
		v9.1l-35.9,0.3v-8.9L379.5,164.8z"/>
	<path class="st0" d="M425.8,173.9l-33.6,0.3l1-163.6h8.9l-1,154.5l24.7-0.3V173.9z"/>
	<path class="st1" d="M420.8,207.8c-1.6,2.3-3.8,4.6-6.7,7.1c-0.2,0.3-0.5,0.5-0.9,0.6c-0.4,0.1-0.7,0-1-0.2
		c-4.5-2.8-7.2-6.1-8.4-9.9c-0.9-3.3-0.6-6.2,1-8.7c0.7-1.1,1.7-1.9,2.8-2.3c1.2-0.4,2.4-0.3,3.5,0.5c1.1,0.8,1.9,2.1,2.4,4
		c0.4-0.6,0.9-1.2,1.4-1.8c1.8-1.9,3.7-2.8,5.7-2.6c1.1,0.1,2,0.5,2.7,1.2c0.7,0.8,1.1,1.8,1.1,3
		C424.5,201.1,423.3,204.1,420.8,207.8z M421.6,198.8c0-0.6-0.1-1-0.4-1.2c-0.2-0.2-0.4-0.3-0.8-0.3c-1.2-0.1-2.4,0.5-3.6,1.8
		c-1.5,1.6-2.3,3.7-2.6,6.3c0,0.4-0.3,0.8-0.6,1c-0.2,0.2-0.6,0.3-0.9,0.3c-0.4,0-0.7-0.1-1-0.4c-0.3-0.3-0.4-0.6-0.4-1
		c0-2.3-0.2-4.2-0.7-5.8c-0.4-1.2-0.8-1.9-1.3-2.3c-0.3-0.2-0.6-0.3-0.9-0.2c-0.5,0.2-0.9,0.6-1.3,1.2c-1.1,1.7-1.4,3.8-0.6,6.3
		c0.8,3,2.9,5.6,6.3,7.8c2.4-2.1,4.3-4.1,5.7-6.1C420.7,203,421.7,200.6,421.6,198.8z"/>
	<path class="st0" d="M240.9,211.1c-0.7,0.8-1.2,1.4-1.7,1.9c-2,1.8-4.9,1.6-6.5-0.6c-1.7-2.3-1.5-4.9-0.3-7.3
		c1.1-2.3,3-3.7,5.7-3.7c0.6,0,1.1,0.1,1.7,0.3c0.5,0.2,0.9,0.3,1.5,0.2c1.6-0.2,2,0.3,2.1,1.9c0.2,2.8,0.3,5.7,0.4,8.5
		c0.1,1.5-0.4,2.1-1.2,2.2c-0.9,0.1-1.4-0.6-1.5-2C241,212.2,241,211.8,240.9,211.1z M234.3,208.6c0,1.5,0.6,2.4,1.4,2.7
		c0.9,0.3,1.8-0.2,2.6-1.5c0.7-1.2,1-2.4,1.4-3.7c0.3-1.1-0.1-1.7-1.3-1.8c-0.9-0.1-1.6,0.1-2.3,0.6
		C234.8,205.9,234.4,207.3,234.3,208.6L234.3,208.6z"/>
	<path class="st0" d="M251.4,202.2c0.8-0.4,1.7-0.6,2.7-0.5c0.9,0.1,1.8,0.6,2.3,1.3c0.3,0.4,0.5,0.9,0.4,1.4
		c-0.1,0.8-1.1,1.3-1.8,0.9c-0.5-0.2-0.8-0.7-1.3-0.8c-0.3,0-0.7,0.1-0.9,0.4c-0.3,0.3-0.4,0.7-0.5,1.2c-0.5,2.1-0.7,4.2-0.4,6.3
		c0.1,0.6,0.2,1.2-0.1,1.7c-0.3,0.6-1.1,0.8-1.7,0.6c-0.7-0.2-0.9-1-1-1.7c-0.5-3.3-0.6-6.7-0.7-10c0-0.5,0-1,0.2-1.5
		c0.2-0.5,0.6-0.9,1.1-1c0.4,0,0.8,0.2,1.1,0.5C251,201.4,251.2,201.8,251.4,202.2L251.4,202.2L251.4,202.2z"/>
	<path class="st0" d="M260.9,201.5c-0.5,0-1-0.2-1.3-0.6c-0.3-0.4-0.4-0.9-0.2-1.3c0.2-0.4,0.7-0.7,1.1-0.7c0.4-0.1,0.9-0.1,1.4-0.1
		c0.2,0,0.3-0.1,0.4-0.2c0.1-0.1,0.2-0.3,0.2-0.4c0.1-0.6,0.1-1.2,0.1-1.8c0-0.6,0.1-1.3,0-1.9c0-0.7,0-1.4,0.1-2
		c0.1-0.4,0.2-0.8,0.5-1.1c0.3-0.3,0.7-0.5,1.1-0.5c0.5,0.1,0.9,0.5,1,1c0.2,0.5,0.2,1,0.1,1.5c-0.1,1.1-0.1,2.4,0,3.8
		c0,0.7,0.1,1.4,0.5,1.6c0.5,0.3,1.2,0.1,1.8,0.1c0.8,0.1,1.6,0.8,1.4,1.6c-0.1,0.5-0.7,0.9-1.2,1c-0.5,0.1-1.1,0.1-1.6,0.2
		c-0.3,0-0.6,0.1-0.7,0.3c-0.2,0.2-0.2,0.6-0.2,0.9l0.3,9.3c0,0.7,0,1.4-0.3,2c-0.3,0.6-1.1,1-1.7,0.8c-0.7-0.3-0.8-1.2-0.8-2
		l-0.4-10.1c0-0.4,0-0.8-0.3-1C262,201.5,261.4,201.6,260.9,201.5z"/>
	<path class="st0" d="M290.4,205.6c0.7-1.8,1.1-3.8,1.3-5.7c0.1-0.8,0.2-1.8,1-2.1c0.6-0.2,1.2,0.1,1.8,0.5c0.8,0.6,1.5,1.2,2.1,1.9
		c0.5,0.5,0.9,1.1,0.7,1.8c-0.2,0.5-0.8,0.8-1.3,0.8c-0.6,0-1.1-0.3-1.6-0.5l-1.5,5.1c-0.2,0.6-0.3,1.1-0.3,1.7
		c0.1,1.4,1.3,2.3,2,3.5c0.4,0.7,0.5,1.8-0.2,2.2c-0.6,0.4-1.4,0.1-1.9-0.4c-0.5-0.5-0.8-1.1-1.2-1.7c-0.1-0.1-0.2-0.3-0.4-0.3
		c-0.4-0.1-0.7,0.2-1,0.5c-1.5,1.4-4.2,1.9-6,0.7c-1.9-1.3-2.8-4.4-2.9-6.5c-0.1-2.4,0.7-4.9,2.1-6.9c0.5-0.7,1-1.3,1.2-2.1
		c0.2-1-0.1-2-0.2-2.9c-0.3-1.7-0.1-3.6,0.9-5.1c1-1.5,2.8-2.4,4.5-2.2c1.2,0.2,2.3,1,2.9,2s0.7,2.3,0.4,3.5
		c-0.6,2.2-2.7,3.6-4.5,5.1c-0.3,0.2-0.5,0.4-0.6,0.7c-0.1,0.3,0,0.7,0.1,1C288.4,202.1,289.3,203.9,290.4,205.6L290.4,205.6z
		 M285.3,201.9c-1.5,2-1.9,5.5-0.8,7.8c0.2,0.5,0.4,0.9,0.8,1.2c0.7,0.6,1.6,0.6,2.4,0c0.9-0.6,1.3-1.6,0.9-2.2
		C287.5,206.5,286.5,204.2,285.3,201.9L285.3,201.9z M287.1,195.7c1.3-0.7,2.2-1.5,2.8-2.5c0.5-0.8,0.3-1.9-0.4-2.4
		c-0.8-0.5-1.6-0.2-2.1,0.9C286.8,192.9,286.6,194.1,287.1,195.7z"/>
	<path class="st0" d="M318.2,212.9c-1.4,1.3-3.3,1.8-5,1c-1.9-0.8-3.1-2.8-3.6-4.7c-0.4-1.5-0.3-3,0.2-4.5c0.5-1.4,1.6-2.7,3-3.3
		c1.4-0.6,3.1-0.5,4.5,0c0.2,0.1,0.5,0.2,0.7,0.1c0.4-0.1,0.5-0.6,0.5-0.9l0.9-7.4c0.1-0.5,0.1-1,0.4-1.4c0.2-0.4,0.7-0.8,1.2-0.8
		c0.6,0,1,0.5,1.2,1c0.2,0.5,0.2,1.1,0.1,1.7c-0.3,6.2-0.2,12.3,0.2,18.5c0,0.5,0.1,1.1-0.1,1.6c-0.2,0.5-0.5,1-1.1,1.1
		c-0.5,0.1-1-0.2-1.3-0.6c-0.3-0.4-0.4-1-0.4-1.5c0-0.4-0.1-0.8-0.2-1.4C319,211.9,318.6,212.5,318.2,212.9z M313.3,210.6
		c1.1,1.3,2.4,1.2,3.2-0.2c0.8-1.3,1-2.7,1.3-4.1c0.1-0.6-0.2-1-0.5-1.3c-0.9-0.9-2.3-1.3-3.3-0.8c-1.3,0.7-1.7,1.9-1.7,3.6
		C312.2,208.6,312.5,209.7,313.3,210.6z"/>
	<path class="st0" d="M330.1,209.4c0.2,0.9,0.8,1.8,1.4,2.3c1.2,1,2.3,1,3.5,0c0.1-0.1,0.3-0.3,0.4-0.4c0.5-0.5,1.1-0.6,1.7-0.1
		c0.6,0.5,0.6,1.1,0.3,1.7c-0.8,1.5-2,2.3-3.6,2.4c-2.5,0.1-4.4-1.1-5.6-3.2c-1.5-2.6-1.6-5.3-0.4-8c1.5-3.6,5.7-4.8,8.6-2.5
		c1.6,1.3,2.3,3,1.8,5c-0.4,1.9-1.7,3-3.5,3.5c-0.9,0.2-1.6,0.2-2.4,0C331.6,210,330.9,209.7,330.1,209.4L330.1,209.4z M335.4,205.5
		c0-1.3-1.2-2.4-2.5-2.4c-1.1,0-2.7,1.3-2.7,2.2c0,0.8,2,2.1,3.3,2.1C334.7,207.4,335.5,206.6,335.4,205.5z"/>
	<path class="st0" d="M345.7,214.9c-0.9,0-1.8-0.3-2.5-1.1c-0.5-0.5-0.6-1.1-0.2-1.7c0.4-0.6,1-0.8,1.6-0.5c0.1,0,0.1,0,0.2,0.1
		c0.6,0.3,1.3,0.7,1.9,0c0.5-0.5,0.3-1.4-0.5-2.2c-0.6-0.6-1.4-1.1-2-1.7c-1.4-1.3-1.7-3.1-1-4.7c0.7-1.5,2.5-2.5,4.2-2.4
		c1.1,0.1,2.1,0.5,2.7,1.5c0.3,0.5,0.3,1.1,0,1.6c-0.4,0.5-1,0.6-1.5,0.4c-0.4-0.2-0.8-0.5-1.2-0.6c-0.5-0.2-1,0-1.3,0.5
		c-0.4,0.5-0.3,1,0,1.4c0.5,0.5,1,0.9,1.6,1.4c1.1,0.9,1.9,2,2.2,3.4C350.2,212.6,348.3,214.8,345.7,214.9L345.7,214.9z"/>
	<path class="st0" d="M356.2,214.8c-0.8,0.1-1.4-0.5-1.4-1.6l-0.1-9.5c0-0.8,0.2-1.5,1.2-1.6c0.8-0.1,1.5,0.4,1.5,1.5
		c0.1,3.2,0.1,6.4,0.1,9.6C357.5,214.1,357.1,214.7,356.2,214.8z M354.8,199.2c0-0.7,0.5-1.1,1.2-1.2c0.7,0,1.2,0.5,1.2,1.2
		c-0.1,0.7-0.5,1.1-1.2,1.2C355.2,200.3,354.8,199.9,354.8,199.2z"/>
	<path class="st0" d="M373.6,202.7c0.3,4.9,1,9.7,0,14.6c-0.3,1.6-1,3-2.2,4.1c-1.8,1.6-4.2,1.4-5.7-0.4c-0.7-0.8-0.8-1.6-0.2-2.2
		c0.7-0.7,1.3-0.4,2,0.1c1.4,1,2.2,0.8,2.9-0.8c1-2.2,1-4.5,0.8-7.2c-0.8,0.9-1.3,1.5-1.8,2c-1.4,1.2-3.1,1.2-4.5,0.2
		c-3.3-2.4-3.8-7.3-1-10.2c1.6-1.7,4.7-1.9,6.9-1.1c0.7,0.3,0.6-0.3,1.2-0.7C372.9,200.5,373.5,201.6,373.6,202.7L373.6,202.7z
		 M367.6,203.9c-0.7-0.1-1.3,0.3-1.8,0.8c-1.3,1.4-1.4,3.9-0.2,5.4c0.9,1.1,1.6,1.1,2.4,0c0.8-1,1.2-2.2,1.6-3.4
		C370.2,205,369.4,204,367.6,203.9z"/>
	<path class="st0" d="M389,205.1c0.7,2.4,0.7,4.9,0.7,7.4c0,0.6,0,1.3-0.4,1.8c-0.4,0.5-1.3,0.5-1.8,0.1c-0.5-0.4-0.5-1.1-0.6-1.8
		c-0.1-2.5,0-5.1-0.8-7.5c-0.2-0.6-0.6-1.3-1.3-1.3c-0.5,0-0.9,0.3-1.2,0.6c-1.1,1.2-1.5,2.9-1.6,4.5c-0.1,1.6,0.1,3.2-0.1,4.8
		c0,0.4-0.1,0.9-0.4,1.2c-0.4,0.4-1.1,0.4-1.6,0.2c-0.5-0.3-0.7-0.8-0.7-1.4c-0.5-3.5-0.8-7-0.8-10.5c0-0.5,0-1.1,0.3-1.6
		c0.3-0.4,0.7-0.7,1.2-0.7c0.2,0,0.5,0,0.7,0.1c0.1,0.1,0.2,0.2,0.3,0.4c0.3,0.4,0.5,0.9,0.5,1.4c0.7-1,2.1-1.8,3.4-1.9
		c1-0.1,1.9,0.4,2.6,1.1c0.7,0.7,1.1,1.7,1.4,2.6C388.9,204.9,389,205,389,205.1L389,205.1z"/>
	<polygon class="st2" points="56.5,164.8 56.5,173.9 20.6,174.2 20.6,165.3 	"/>
	<polygon class="st3" points="330.8,164.8 330.8,173.9 294.8,174.2 294.8,165.3 	"/>
	<polygon class="st4" points="379.5,164.8 379.5,173.9 343.5,174.2 343.5,165.3 	"/>
</g>
</svg>
